<svg width="20" height="21" viewBox="0 0 20 21" fill="none" xmlns="http://www.w3.org/2000/svg">
<mask id="mask0_286_3165" style="mask-type:alpha" maskUnits="userSpaceOnUse" x="0" y="0" width="20" height="21">
<rect y="0.500004" width="20" height="20" fill="#D9D9D9"/>
</mask>
<g mask="url(#mask0_286_3165)">
<path d="M9.99967 10.5C10.458 10.5 10.8504 10.3368 11.1768 10.0104C11.5031 9.68403 11.6663 9.29167 11.6663 8.83334C11.6663 8.375 11.5031 7.98264 11.1768 7.65626C10.8504 7.32987 10.458 7.16667 9.99967 7.16667C9.54134 7.16667 9.14898 7.32987 8.82259 7.65626C8.4962 7.98264 8.33301 8.375 8.33301 8.83334C8.33301 9.29167 8.4962 9.68403 8.82259 10.0104C9.14898 10.3368 9.54134 10.5 9.99967 10.5ZM9.99967 16.625C11.6941 15.0694 12.9511 13.6563 13.7705 12.3854C14.59 11.1146 14.9997 9.98612 14.9997 9C14.9997 7.48612 14.517 6.24653 13.5518 5.28125C12.5865 4.31598 11.4025 3.83334 9.99967 3.83334C8.5969 3.83334 7.41287 4.31598 6.44759 5.28125C5.48231 6.24653 4.99967 7.48612 4.99967 9C4.99967 9.98612 5.4094 11.1146 6.22884 12.3854C7.04829 13.6563 8.30523 15.0694 9.99967 16.625ZM9.99967 18.8333C7.76356 16.9306 6.09342 15.1632 4.98926 13.5313C3.88509 11.8993 3.33301 10.3889 3.33301 9C3.33301 6.91667 4.00315 5.25695 5.34342 4.02084C6.6837 2.78473 8.23579 2.16667 9.99967 2.16667C11.7636 2.16667 13.3156 2.78473 14.6559 4.02084C15.9962 5.25695 16.6663 6.91667 16.6663 9C16.6663 10.3889 16.1143 11.8993 15.0101 13.5313C13.9059 15.1632 12.2358 16.9306 9.99967 18.8333Z" fill="white"/>
</g>
</svg>
