<svg width="23" height="22" viewBox="0 0 23 22" fill="none" xmlns="http://www.w3.org/2000/svg">
<path d="M20.0491 0.00366211H2.86157C2.23997 0.00366211 1.64383 0.250592 1.20429 0.690131C0.764752 1.12967 0.517822 1.72581 0.517822 2.34741L0.517822 19.5349C0.517822 20.1565 0.764752 20.7527 1.20429 21.1922C1.64383 21.6317 2.23997 21.8787 2.86157 21.8787H9.56323V14.4417H6.48706V10.9412H9.56323V8.27319C9.56323 5.23853 11.3699 3.56226 14.137 3.56226C15.4622 3.56226 16.8479 3.79858 16.8479 3.79858V6.7771H15.321C13.8167 6.7771 13.3474 7.71069 13.3474 8.66821V10.9412H16.7058L16.1687 14.4417H13.3474V21.8787H20.0491C20.6707 21.8787 21.2668 21.6317 21.7064 21.1922C22.1459 20.7527 22.3928 20.1565 22.3928 19.5349V2.34741C22.3928 1.72581 22.1459 1.12967 21.7064 0.690131C21.2668 0.250592 20.6707 0.00366211 20.0491 0.00366211Z" fill="white"/>
</svg>
