<svg width="23" height="22" viewBox="0 0 23 22" fill="none" xmlns="http://www.w3.org/2000/svg">
<path d="M11.3389 5.33081C8.2334 5.33081 5.72852 7.83569 5.72852 10.9412C5.72852 14.0466 8.2334 16.5515 11.3389 16.5515C14.4443 16.5515 16.9492 14.0466 16.9492 10.9412C16.9492 7.83569 14.4443 5.33081 11.3389 5.33081ZM11.3389 14.5886C9.33203 14.5886 7.69141 12.9529 7.69141 10.9412C7.69141 8.92944 9.32715 7.2937 11.3389 7.2937C13.3506 7.2937 14.9863 8.92944 14.9863 10.9412C14.9863 12.9529 13.3457 14.5886 11.3389 14.5886ZM18.4873 5.10132C18.4873 5.82886 17.9014 6.40991 17.1787 6.40991C16.4512 6.40991 15.8701 5.82397 15.8701 5.10132C15.8701 4.37866 16.4561 3.79272 17.1787 3.79272C17.9014 3.79272 18.4873 4.37866 18.4873 5.10132ZM22.2031 6.42944C22.1201 4.67651 21.7197 3.12378 20.4355 1.84448C19.1562 0.565185 17.6035 0.164795 15.8506 0.0769043C14.0439 -0.0256348 8.62891 -0.0256348 6.82227 0.0769043C5.07422 0.159912 3.52148 0.560303 2.2373 1.8396C0.953125 3.1189 0.557617 4.67163 0.469727 6.42456C0.367188 8.2312 0.367188 13.6462 0.469727 15.4529C0.552734 17.2058 0.953125 18.7585 2.2373 20.0378C3.52148 21.3171 5.06934 21.7175 6.82227 21.8054C8.62891 21.908 14.0439 21.908 15.8506 21.8054C17.6035 21.7224 19.1562 21.322 20.4355 20.0378C21.7148 18.7585 22.1152 17.2058 22.2031 15.4529C22.3057 13.6462 22.3057 8.23608 22.2031 6.42944ZM19.8691 17.3914C19.4883 18.3484 18.751 19.0857 17.7891 19.4714C16.3486 20.0427 12.9307 19.9109 11.3389 19.9109C9.74707 19.9109 6.32422 20.0378 4.88867 19.4714C3.93164 19.0906 3.19434 18.3533 2.80859 17.3914C2.2373 15.9509 2.36914 12.533 2.36914 10.9412C2.36914 9.34937 2.24219 5.92651 2.80859 4.49097C3.18945 3.53394 3.92676 2.79663 4.88867 2.41089C6.3291 1.8396 9.74707 1.97144 11.3389 1.97144C12.9307 1.97144 16.3535 1.84448 17.7891 2.41089C18.7461 2.79175 19.4834 3.52905 19.8691 4.49097C20.4404 5.9314 20.3086 9.34937 20.3086 10.9412C20.3086 12.533 20.4404 15.9558 19.8691 17.3914Z" fill="white"/>
</svg>
