<svg width="23" height="22" viewBox="0 0 23 22" fill="none" xmlns="http://www.w3.org/2000/svg">
<path d="M20.5925 0.00366211H1.83765C0.978271 0.00366211 0.280029 0.71167 0.280029 1.58081V20.3015C0.280029 21.1707 0.978271 21.8787 1.83765 21.8787H20.5925C21.4519 21.8787 22.155 21.1707 22.155 20.3015V1.58081C22.155 0.71167 21.4519 0.00366211 20.5925 0.00366211ZM6.89136 18.7537H3.64917V8.31421H6.89624V18.7537H6.89136ZM5.27026 6.88843C4.23022 6.88843 3.39038 6.0437 3.39038 5.00854C3.39038 3.97339 4.23022 3.12866 5.27026 3.12866C6.30542 3.12866 7.15015 3.97339 7.15015 5.00854C7.15015 6.04858 6.3103 6.88843 5.27026 6.88843ZM19.0447 18.7537H15.8025V13.6755C15.8025 12.4646 15.7781 10.907 14.1179 10.907C12.4285 10.907 12.1697 12.2253 12.1697 13.5876V18.7537H8.92749V8.31421H12.0378V9.73999H12.0818C12.5164 8.91968 13.5759 8.05542 15.1531 8.05542C18.4343 8.05542 19.0447 10.2185 19.0447 13.031V18.7537Z" fill="white"/>
</svg>
