<svg width="23" height="22" viewBox="0 0 23 22" fill="none" xmlns="http://www.w3.org/2000/svg">
<path d="M19.6863 0.00366211H2.49878C1.20483 0.00366211 0.155029 1.05347 0.155029 2.34741V19.5349C0.155029 20.8289 1.20483 21.8787 2.49878 21.8787H19.6863C20.9802 21.8787 22.03 20.8289 22.03 19.5349V2.34741C22.03 1.05347 20.9802 0.00366211 19.6863 0.00366211ZM17.2986 7.75757C17.3083 7.89429 17.3083 8.03589 17.3083 8.17261C17.3083 12.406 14.0857 17.2839 8.19702 17.2839C6.38062 17.2839 4.69604 16.7566 3.28003 15.8484C3.53882 15.8777 3.78784 15.8875 4.05151 15.8875C5.55054 15.8875 6.92749 15.3796 8.02612 14.5203C6.61987 14.491 5.43823 13.5681 5.03296 12.2986C5.52612 12.3718 5.97046 12.3718 6.47827 12.24C5.01343 11.9421 3.91479 10.6531 3.91479 9.09546V9.0564C4.3396 9.29565 4.83765 9.44214 5.36011 9.46167C4.92086 9.1695 4.56078 8.77313 4.312 8.30794C4.06321 7.84274 3.93346 7.32319 3.93433 6.79565C3.93433 6.19995 4.09058 5.65308 4.3689 5.17944C5.94604 7.1228 8.31421 8.39233 10.9705 8.52905C10.5164 6.3562 12.1423 4.59351 14.0955 4.59351C15.0183 4.59351 15.8484 4.97925 16.4343 5.60425C17.157 5.46753 17.8503 5.19897 18.4656 4.83276C18.2263 5.57495 17.7234 6.19995 17.0593 6.59546C17.7039 6.5271 18.3289 6.34644 18.905 6.09741C18.4705 6.73706 17.9236 7.30347 17.2986 7.75757Z" fill="white"/>
</svg>
